<svg xmlns="http://www.w3.org/2000/svg" viewBox="0 0 512 512"><path d="M140.212 178.17v-106H67a3 3 0 00-3 3v103h76.212zM445 72.17H152.09v106h31.913c2.427-11.898 3.586-26.126 2.469-43.255 11.983 8.013 18.015 24.652 23.264 43.254h48.49c6.728-37.106 21.633-72.144 46.703-90.404-7.523 39.838-2.491 69.062 6.279 90.404H448v-103a3 3 0 00-3-3zM212.98 190.048c7.748 28.796 16.174 58.884 42.898 67.566-2.673-20.272-2.676-44.02.48-67.566H212.98zM123.877 290.685a105.327 105.327 0 014.01-8.464c8.338-16.494 18.81-32.116 28.494-48.024 4.784-7.86 17.141-20.257 24.582-44.149H64v112h55.766a102.067 102.067 0 014.111-11.363zM316.85 190.048c10.06 18.569 22.156 29.586 27.08 35.89 11.69 14.963 36.335 44.222 45.463 76.11H448v-112H316.85zM302.875 299.75c1.405 10.67-1.463 27.225-4.195 35.686-8.545 26.461-28.195 40.339-49.882 40.708-27.457.468-41.732-27.2-36.206-68.184-21.364 11.383-34.076 41.585-34.076 65.371 0 36 36.934 66.5 77.35 66.5 41.134 0 62.792-19.565 71.134-32.167 23.5-35.5 11.667-76.833-24.125-107.915zM116.01 329.305c0-.565.022-1.126.032-1.689a86.237 86.237 0 011.012-13.457H64v103a3 3 0 003 3h101.199c-31.823-21.375-52.19-54.129-52.19-90.854zM392.049 314.16c.55 3.726.85 7.469.85 11.209 0 44.524-16.334 75.425-42.945 94.79H445a3 3 0 003-3v-103h-55.951z"/></svg>